<?xml version="1.0" encoding="UTF-8" standalone="no"?>
<!DOCTYPE svg PUBLIC "-//W3C//DTD SVG 1.1//EN" "http://www.w3.org/Graphics/SVG/1.1/DTD/svg11.dtd">
<svg width="100%" height="100%" viewBox="0 0 512 512" version="1.1" xmlns="http://www.w3.org/2000/svg" xmlns:xlink="http://www.w3.org/1999/xlink" xml:space="preserve" xmlns:serif="http://www.serif.com/" style="fill-rule:evenodd;clip-rule:evenodd;stroke-linejoin:round;stroke-miterlimit:2;">
    <g transform="matrix(1,0,0,1,-612,-612)">
        <g id="bibliotecas" transform="matrix(1,0,0,1,612,612)">
            <rect x="0" y="0" width="512" height="512" style="fill:none;"/>
            <g transform="matrix(2.6,0,0,2.6,98.7,98.7004)">
                <path d="M6.638,0.783L21.982,0.783C25.37,0.783 28.119,3.073 28.119,5.9L28.119,11.012L0.5,11.012L0.5,5.9C0.5,3.073 3.25,0.783 6.638,0.783ZM40.395,11.015L46.533,11.015C49.921,11.015 52.67,13.305 52.67,16.131L52.67,21.244L34.257,21.244L34.257,16.131C34.257,13.305 37.004,11.015 40.395,11.015ZM96.497,12.283C99.333,12.233 101.786,13.869 102.242,16.299L103.192,21.323L85.099,24.739C85.099,24.739 84.671,22.489 84.147,19.715C83.622,16.94 85.9,14.178 89.233,13.549L95.263,12.411C95.68,12.332 96.092,12.291 96.497,12.283ZM0.5,15.877L28.119,15.877L28.119,104.873L0.5,104.873L0.5,15.877ZM34.257,25.082L52.67,25.082L52.67,104.873L34.257,104.873L34.257,25.082ZM103.901,25.092L118.718,103.494L100.625,106.913L85.808,28.511L103.901,25.092ZM67.502,28.407L73.639,28.407C77.028,28.407 79.777,30.696 79.777,33.519L79.777,38.634L61.364,38.634L61.364,33.519C61.364,30.696 64.114,28.407 67.502,28.407ZM61.364,45.03L78.756,45.03L78.756,104.873L61.364,104.873L61.364,45.03ZM11.369,53.278L11.369,62.674L12.003,63.31L15.5,63.31L16.142,62.668L16.142,57.302L17.233,56.211L20.183,56.211L17.239,53.278L11.369,53.278ZM9.849,54.797L7.213,57.433L7.213,63.321L11.357,67.47L13.191,67.47L17.441,63.22L17.441,57.849L17.857,57.433L21.406,57.433L20.79,56.828L17.554,56.828L16.799,57.588L16.799,62.894L14.852,64.84L11.369,64.84L9.849,63.321L9.849,54.797ZM18.165,58.045L18.052,58.158L18.052,63.469L14.057,67.464L14.063,67.47L17.227,67.47L21.383,63.31L21.383,58.045L18.165,58.045ZM40.843,58.654L40.843,67.027L41.408,67.593L44.524,67.593L45.096,67.022L45.096,62.24L46.068,61.268L48.698,61.268L46.074,58.654L40.843,58.654ZM103.619,59.74L98.521,60.91L100.395,69.069L101.073,69.496L104.108,68.798L104.537,68.113L103.468,63.453L104.197,62.287L106.759,61.7L103.619,59.74ZM39.49,60.009L37.142,62.357L37.142,67.603L40.833,71.3L42.468,71.3L46.254,67.514L46.254,62.727L46.623,62.357L49.786,62.357L49.237,61.817L46.354,61.817L45.683,62.494L45.683,67.222L43.947,68.957L40.843,68.957L39.49,67.603L39.49,60.009ZM107.408,62.114L104.599,62.76L104.096,63.57L105.154,68.177L103.852,70.257L100.827,70.952L99.204,69.935L97.504,62.533L95.741,65.347L96.916,70.461L101.339,73.237L102.933,72.872L105.776,68.334L104.704,63.669L104.983,63.225L108.066,62.517L107.408,62.114ZM46.899,62.901L46.798,63.002L46.798,67.735L43.24,71.294L43.244,71.3L46.064,71.3L49.765,67.593L49.765,62.901L46.899,62.901ZM108.167,63.053L105.372,63.695L105.297,63.815L106.357,68.428L103.685,72.693L103.691,72.698L106.439,72.066L109.216,67.625L108.167,63.053ZM68.401,70.949L68.401,76.249L68.76,76.606L70.732,76.606L71.092,76.246L71.092,73.219L71.709,72.603L73.373,72.603L71.712,70.949L68.401,70.949ZM67.544,71.806L66.059,73.292L66.059,76.613L68.395,78.953L69.429,78.953L71.826,76.556L71.826,73.527L72.06,73.292L74.061,73.292L73.714,72.951L71.889,72.951L71.464,73.379L71.464,76.372L70.365,77.47L68.401,77.47L67.544,76.613L67.544,71.806ZM72.235,73.637L72.17,73.701L72.17,76.697L69.917,78.95L69.922,78.953L71.706,78.953L74.048,76.606L74.048,73.637L72.235,73.637ZM119.476,107.513C119.476,107.513 119.897,109.761 120.425,112.541C120.95,115.316 118.671,118.078 115.342,118.707L109.313,119.848C105.983,120.477 102.854,118.741 102.33,115.957L101.379,110.933L119.476,107.513ZM0.5,109.988L28.119,109.988L28.119,115.1C28.119,117.927 25.37,120.217 21.982,120.217L6.638,120.217C3.25,120.217 0.5,117.927 0.5,115.1L0.5,109.988ZM34.257,109.988L52.67,109.988L52.67,115.1C52.67,117.927 49.921,120.217 46.533,120.217L40.395,120.217C37.004,120.217 34.257,117.927 34.257,115.1L34.257,109.988ZM61.364,109.988L79.777,109.988L79.777,115.1C79.777,117.927 77.028,120.217 73.639,120.217L67.502,120.217C64.114,120.217 61.364,117.927 61.364,115.1L61.364,109.988Z" style="fill:white;fill-rule:nonzero;"/>
            </g>
        </g>
    </g>
</svg>
