<?xml version="1.0" encoding="UTF-8" standalone="no"?>
<!DOCTYPE svg PUBLIC "-//W3C//DTD SVG 1.1//EN" "http://www.w3.org/Graphics/SVG/1.1/DTD/svg11.dtd">
<svg width="100%" height="100%" viewBox="0 0 512 512" version="1.1" xmlns="http://www.w3.org/2000/svg" xmlns:xlink="http://www.w3.org/1999/xlink" xml:space="preserve" xmlns:serif="http://www.serif.com/" style="fill-rule:evenodd;clip-rule:evenodd;stroke-linejoin:round;stroke-miterlimit:2;">
    <g transform="matrix(1,0,0,1,-612,-1224)">
        <g id="calendario-administrativo" transform="matrix(1,0,0,1,612,1224)">
            <rect x="0" y="0" width="512" height="512" style="fill:none;"/>
            <g transform="matrix(2.6,0,0,2.6,98.6999,98.7)">
                <path d="M66.427,0.5L67.684,0.5C69.594,0.5 71.142,2.048 71.142,3.957L71.142,17.068C71.142,18.978 69.594,20.527 67.684,20.527L66.427,20.527C64.518,20.527 62.969,18.978 62.969,17.068L62.969,3.957C62.969,2.048 64.517,0.5 66.427,0.5ZM22.075,0.584L23.332,0.584C25.241,0.584 26.79,2.133 26.79,4.043L26.79,17.154C26.79,19.063 25.241,20.613 23.332,20.613L22.075,20.613C20.165,20.613 18.617,19.063 18.617,17.154L18.617,4.043C18.617,2.133 20.165,0.584 22.075,0.584ZM6.232,7.613L15.807,7.613L15.807,17.154C15.807,20.611 18.619,23.423 22.075,23.423L23.332,23.423C26.788,23.423 29.601,20.611 29.601,17.154L29.601,7.613L60.16,7.613L60.16,17.068C60.16,20.525 62.971,23.337 66.427,23.337L67.684,23.337C71.14,23.337 73.953,21.431 73.953,17.975L73.953,7.613L82.827,7.613C85.927,7.613 88.449,10.134 88.448,13.234L88.448,81.163C88.448,84.263 85.927,86.784 82.827,86.784L6.232,86.784C3.132,86.784 0.61,84.263 0.61,81.163L0.61,13.234C0.61,10.134 3.132,7.613 6.232,7.613ZM6.232,29.864L6.232,81.163L82.827,81.163C82.829,81.163 82.831,81.161 82.831,81.161L82.829,29.864L6.232,29.864ZM47.432,36.882L57.525,36.882C57.925,36.882 58.25,37.207 58.25,37.607L58.25,46.346C58.25,46.747 57.925,47.071 57.525,47.071L47.432,47.071C47.031,47.071 46.707,46.747 46.707,46.346L46.707,37.607C46.707,37.207 47.031,36.882 47.432,36.882ZM63.904,36.882L73.999,36.882C74.399,36.882 74.722,37.207 74.722,37.607L74.722,46.346C74.722,46.747 74.399,47.071 73.999,47.071L63.904,47.071C63.504,47.071 63.181,46.747 63.181,46.346L63.181,37.607C63.181,37.207 63.504,36.882 63.904,36.882ZM14.486,51.192L24.58,51.192C24.98,51.192 25.305,51.515 25.305,51.915L25.305,60.656C25.305,61.056 24.98,61.381 24.58,61.381L14.486,61.381C14.086,61.381 13.763,61.056 13.763,60.656L13.763,51.915C13.763,51.515 14.086,51.192 14.486,51.192ZM30.959,51.192L41.052,51.192C41.452,51.192 41.777,51.515 41.777,51.915L41.777,60.656C41.777,61.056 41.452,61.381 41.052,61.381L30.959,61.381C30.559,61.381 30.235,61.056 30.235,60.656L30.235,51.915C30.235,51.515 30.559,51.192 30.959,51.192ZM47.432,51.192L57.525,51.192C57.925,51.192 58.25,51.515 58.25,51.915L58.25,60.656C58.25,61.056 57.925,61.381 57.525,61.381L47.432,61.381C47.031,61.381 46.708,61.056 46.708,60.656L46.708,51.915C46.708,51.515 47.031,51.192 47.432,51.192ZM63.904,51.192L73.999,51.192C74.399,51.192 74.722,51.515 74.722,51.915L74.722,60.656C74.722,61.056 74.399,61.381 73.999,61.381L63.904,61.381C63.504,61.381 63.181,61.056 63.181,60.656L63.181,51.915C63.181,51.515 63.504,51.192 63.904,51.192ZM14.488,65.499L24.58,65.499C24.98,65.499 25.305,65.824 25.305,66.224L25.305,74.965C25.305,75.365 24.981,75.69 24.581,75.69L14.488,75.69C14.088,75.69 13.763,75.365 13.763,74.965L13.763,66.224C13.763,65.824 14.088,65.499 14.488,65.499ZM30.959,65.499L41.054,65.499C41.454,65.499 41.777,65.824 41.777,66.224L41.777,74.965C41.777,75.365 41.454,75.69 41.054,75.69L30.959,75.69C30.559,75.69 30.235,75.365 30.235,74.965L30.235,66.224C30.235,65.824 30.559,65.499 30.959,65.499ZM47.432,65.499L57.526,65.499C57.926,65.499 58.25,65.824 58.25,66.224L58.25,74.965C58.25,75.365 57.926,75.69 57.526,75.69L47.432,75.69C47.031,75.69 46.708,75.365 46.708,74.965L46.708,66.224C46.708,65.824 47.031,65.499 47.432,65.499ZM63.904,65.499L73.999,65.499C74.399,65.499 74.722,65.824 74.722,66.224L74.722,74.965C74.722,75.365 74.399,75.69 73.999,75.69L63.904,75.69C63.504,75.69 63.181,75.365 63.181,74.965L63.181,66.224C63.181,65.824 63.504,65.499 63.904,65.499ZM99.683,91.221L111.793,91.221L117.867,97.269L111.781,97.269L109.527,99.523L109.527,110.594L108.205,111.916L100.992,111.916L99.683,110.605L99.683,91.221ZM96.548,94.356L96.548,111.941L99.683,115.074L106.871,115.074L110.887,111.059L110.887,100.112L112.442,98.543L119.116,98.543L120.39,99.793L113.067,99.793L112.209,100.649L112.209,111.732L103.441,120.5L99.658,120.5L91.111,111.941L91.111,99.793L96.548,94.356ZM113.703,101.054L120.341,101.054L120.341,111.916L111.769,120.5L105.243,120.5L105.23,120.487L113.47,112.247L113.47,101.287L113.703,101.054Z" style="fill:white;fill-rule:nonzero;"/>
            </g>
        </g>
    </g>
</svg>
