<?xml version="1.0" encoding="UTF-8" standalone="no"?>
<!DOCTYPE svg PUBLIC "-//W3C//DTD SVG 1.1//EN" "http://www.w3.org/Graphics/SVG/1.1/DTD/svg11.dtd">
<svg width="100%" height="100%" viewBox="0 0 512 512" version="1.1" xmlns="http://www.w3.org/2000/svg" xmlns:xlink="http://www.w3.org/1999/xlink" xml:space="preserve" xmlns:serif="http://www.serif.com/" style="fill-rule:evenodd;clip-rule:evenodd;stroke-linejoin:round;stroke-miterlimit:2;">
    <g transform="matrix(1,0,0,1,-1224,-612)">
        <g id="calendario-academico" transform="matrix(1,0,0,1,1224,612)">
            <rect x="0" y="0" width="512" height="512" style="fill:none;"/>
            <g transform="matrix(2.6,0,0,2.6,98.7,103.9)">
                <path d="M63.645,0.936L64.851,0.936C66.683,0.936 68.169,2.421 68.169,4.253L68.169,16.832C68.169,18.664 66.683,20.15 64.851,20.15L63.645,20.15C61.813,20.15 60.328,18.664 60.327,16.832L60.327,4.253C60.327,2.421 61.813,0.936 63.645,0.936ZM21.094,1.017L22.299,1.017C24.131,1.017 25.617,2.503 25.617,4.335L25.617,16.914C25.617,18.746 24.131,20.232 22.299,20.232L21.094,20.232C19.261,20.232 17.777,18.746 17.777,16.914L17.777,4.335C17.777,2.503 19.261,1.017 21.094,1.017ZM5.893,7.76L15.08,7.76L15.08,16.914C15.08,20.23 17.777,22.929 21.094,22.929L22.299,22.929C25.615,22.929 28.314,20.23 28.314,16.914L28.314,7.76L57.632,7.76L57.632,16.832C57.632,20.148 60.329,22.846 63.645,22.846L64.851,22.846C68.167,22.846 70.865,21.018 70.865,17.701L70.865,7.76L79.379,7.76C82.353,7.76 84.772,10.179 84.772,13.153L84.772,78.324C84.772,81.298 82.353,83.717 79.379,83.717L5.893,83.717C2.919,83.717 0.5,81.298 0.5,78.324L0.5,13.153C0.5,10.179 2.919,7.76 5.893,7.76ZM5.893,29.108L5.895,78.324L79.379,78.324C79.381,78.324 79.383,78.323 79.383,78.323L79.38,29.108L5.893,29.108ZM45.42,35.841L55.105,35.841C55.489,35.841 55.8,36.153 55.8,36.536L55.8,44.921C55.8,45.305 55.489,45.617 55.105,45.617L45.42,45.617C45.037,45.617 44.726,45.305 44.726,44.921L44.726,36.536C44.726,36.153 45.037,35.841 45.42,35.841ZM61.224,35.841L70.909,35.841C71.293,35.841 71.603,36.153 71.603,36.536L71.603,44.921C71.603,45.305 71.293,45.617 70.909,45.617L61.224,45.617C60.84,45.617 60.53,45.305 60.53,44.921L60.53,36.536C60.53,36.153 60.84,35.841 61.224,35.841ZM13.813,49.57L23.498,49.57C23.882,49.57 24.192,49.88 24.192,50.264L24.192,58.65C24.192,59.033 23.882,59.345 23.498,59.345L13.813,59.345C13.429,59.345 13.119,59.033 13.119,58.65L13.119,50.264C13.119,49.88 13.429,49.57 13.813,49.57ZM29.617,49.57L39.302,49.57C39.686,49.57 39.996,49.88 39.996,50.264L39.996,58.65C39.996,59.033 39.686,59.345 39.302,59.345L29.617,59.345C29.233,59.345 28.923,59.033 28.923,58.65L28.923,50.264C28.923,49.88 29.233,49.57 29.617,49.57ZM45.42,49.57L55.105,49.57C55.489,49.57 55.8,49.88 55.8,50.264L55.8,58.65C55.8,59.033 55.489,59.345 55.105,59.345L45.42,59.345C45.037,59.345 44.726,59.033 44.726,58.65L44.726,50.264C44.726,49.88 45.037,49.57 45.42,49.57ZM61.224,49.57L70.909,49.57C71.293,49.57 71.603,49.88 71.603,50.264L71.603,58.65C71.603,59.033 71.293,59.345 70.909,59.345L61.224,59.345C60.84,59.345 60.53,59.033 60.53,58.65L60.53,50.264C60.53,49.88 60.84,49.57 61.224,49.57ZM13.814,63.297L23.498,63.297C23.882,63.297 24.192,63.608 24.192,63.992L24.192,72.378C24.192,72.762 23.882,73.074 23.498,73.074L13.814,73.074C13.43,73.074 13.119,72.762 13.119,72.378L13.119,63.992C13.119,63.608 13.43,63.297 13.814,63.297ZM29.618,63.297L39.302,63.297C39.686,63.297 39.996,63.608 39.996,63.992L39.996,72.378C39.996,72.762 39.686,73.074 39.302,73.074L29.618,73.074C29.234,73.074 28.923,72.762 28.923,72.378L28.923,63.992C28.923,63.608 29.234,63.297 29.618,63.297ZM45.422,63.297L55.105,63.297C55.489,63.297 55.801,63.608 55.801,63.992L55.801,72.378C55.801,72.762 55.489,73.074 55.105,73.074L45.422,73.074C45.038,73.074 44.726,72.762 44.726,72.378L44.726,63.992C44.726,63.608 45.038,63.297 45.422,63.297ZM61.224,63.297L70.909,63.297C71.293,63.297 71.603,63.608 71.603,63.992L71.603,72.378C71.603,72.762 71.293,73.074 70.909,73.074L61.224,73.074C60.84,73.074 60.53,72.762 60.53,72.378L60.53,63.992C60.53,63.608 60.84,63.297 61.224,63.297ZM101.532,87.973L120.5,95.272L101.532,101.528L82.243,95.272L101.532,87.973ZM115.447,97.472L115.447,105.618L115.444,105.632C115.813,105.81 116.068,106.184 116.068,106.62C116.068,106.993 115.881,107.322 115.598,107.522C115.879,107.69 116.068,107.993 116.068,108.345L116.068,116.064L113.863,116.064L113.863,108.345C113.863,107.994 114.052,107.69 114.332,107.522C114.048,107.322 113.863,106.993 113.863,106.62C113.863,106.173 114.129,105.791 114.512,105.618L114.484,105.578L114.484,97.778L115.447,97.472ZM90.064,98.399L101.371,102.209L112.801,98.399L112.801,103.773C112.801,103.773 107.667,103.452 101.432,107.382C101.432,107.382 96.079,103.853 90.064,103.733L90.064,98.399Z" style="fill:white;fill-rule:nonzero;"/>
            </g>
        </g>
    </g>
</svg>
