<?xml version="1.0" encoding="UTF-8" standalone="no"?>
<!DOCTYPE svg PUBLIC "-//W3C//DTD SVG 1.1//EN" "http://www.w3.org/Graphics/SVG/1.1/DTD/svg11.dtd">
<svg width="100%" height="100%" viewBox="0 0 512 512" version="1.1" xmlns="http://www.w3.org/2000/svg" xmlns:xlink="http://www.w3.org/1999/xlink" xml:space="preserve" xmlns:serif="http://www.serif.com/" style="fill-rule:evenodd;clip-rule:evenodd;stroke-linejoin:round;stroke-miterlimit:2;">
    <g transform="matrix(1,0,0,1,-1836,0)">
        <g id="calendario-pos-graduacao" transform="matrix(1,0,0,1,1836,0)">
            <rect x="0" y="0" width="512" height="512" style="fill:none;"/>
            <g transform="matrix(2.6,0,0,2.6,101.3,98.7)">
                <path d="M66.667,0.5L67.924,0.5C69.833,0.5 71.382,2.048 71.382,3.957L71.382,17.068C71.382,18.978 69.833,20.527 67.924,20.527L66.667,20.527C64.757,20.527 63.209,18.978 63.209,17.068L63.209,3.957C63.209,2.048 64.757,0.5 66.667,0.5ZM22.315,0.584L23.571,0.584C25.481,0.584 27.03,2.133 27.03,4.043L27.03,17.154C27.03,19.063 25.481,20.613 23.571,20.613L22.315,20.613C20.405,20.613 18.858,19.063 18.858,17.154L18.858,4.043C18.858,2.133 20.405,0.584 22.315,0.584ZM6.471,7.613L16.047,7.613L16.047,17.154C16.047,20.611 18.858,23.423 22.315,23.423L23.571,23.423C27.028,23.423 29.84,20.611 29.84,17.154L29.84,7.613L60.399,7.613L60.399,17.068C60.399,20.525 63.21,23.337 66.667,23.337L67.924,23.337C71.38,23.337 74.193,21.431 74.193,17.975L74.193,7.613L83.067,7.613C86.166,7.613 88.688,10.134 88.688,13.234L88.688,81.163C88.688,84.263 86.166,86.784 83.067,86.784L6.471,86.784C3.371,86.784 0.85,84.263 0.85,81.163L0.85,13.234C0.85,10.134 3.371,7.613 6.471,7.613ZM6.471,29.864L6.472,81.163L83.067,81.163C83.069,81.163 83.071,81.161 83.071,81.161L83.068,29.864L6.471,29.864ZM47.671,36.882L57.766,36.882C58.166,36.882 58.489,37.207 58.489,37.607L58.489,46.346C58.489,46.747 58.166,47.071 57.766,47.071L47.671,47.071C47.271,47.071 46.948,46.747 46.948,46.346L46.948,37.607C46.948,37.207 47.271,36.882 47.671,36.882ZM64.144,36.882L74.238,36.882C74.638,36.882 74.962,37.207 74.962,37.607L74.962,46.346C74.962,46.747 74.638,47.071 74.238,47.071L64.144,47.071C63.743,47.071 63.42,46.747 63.42,46.346L63.42,37.607C63.42,37.207 63.743,36.882 64.144,36.882ZM14.726,51.192L24.821,51.192C25.221,51.192 25.544,51.515 25.544,51.915L25.544,60.656C25.544,61.056 25.221,61.381 24.821,61.381L14.726,61.381C14.326,61.381 14.002,61.056 14.002,60.656L14.002,51.915C14.002,51.515 14.326,51.192 14.726,51.192ZM31.198,51.192L41.293,51.192C41.693,51.192 42.017,51.515 42.017,51.915L42.017,60.656C42.017,61.056 41.693,61.381 41.293,61.381L31.198,61.381C30.798,61.381 30.475,61.056 30.475,60.656L30.475,51.915C30.475,51.515 30.798,51.192 31.198,51.192ZM47.671,51.192L57.766,51.192C58.166,51.192 58.489,51.515 58.489,51.915L58.489,60.656C58.489,61.056 58.166,61.381 57.766,61.381L47.671,61.381C47.271,61.381 46.948,61.056 46.948,60.656L46.948,51.915C46.948,51.515 47.271,51.192 47.671,51.192ZM64.144,51.192L74.238,51.192C74.638,51.192 74.962,51.515 74.962,51.915L74.962,60.656C74.962,61.056 74.638,61.381 74.238,61.381L64.144,61.381C63.743,61.381 63.42,61.056 63.42,60.656L63.42,51.915C63.42,51.515 63.743,51.192 64.144,51.192ZM14.727,65.499L24.821,65.499C25.221,65.499 25.544,65.824 25.544,66.224L25.544,74.965C25.544,75.365 25.221,75.69 24.821,75.69L14.727,75.69C14.327,75.69 14.002,75.365 14.002,74.965L14.002,66.224C14.002,65.824 14.327,65.499 14.727,65.499ZM31.2,65.499L41.293,65.499C41.693,65.499 42.017,65.824 42.017,66.224L42.017,74.965C42.017,75.365 41.693,75.69 41.293,75.69L31.2,75.69C30.8,75.69 30.475,75.365 30.475,74.965L30.475,66.224C30.475,65.824 30.8,65.499 31.2,65.499ZM47.672,65.499L57.766,65.499C58.166,65.499 58.491,65.824 58.491,66.224L58.491,74.965C58.491,75.365 58.166,75.69 57.766,75.69L47.672,75.69C47.272,75.69 46.948,75.365 46.948,74.965L46.948,66.224C46.948,65.824 47.272,65.499 47.672,65.499ZM64.144,65.499L74.238,65.499C74.638,65.499 74.962,65.824 74.962,66.224L74.962,74.965C74.962,75.365 74.638,75.69 74.238,75.69L64.144,75.69C63.743,75.69 63.42,75.365 63.42,74.965L63.42,66.224C63.42,65.824 63.743,65.499 64.144,65.499ZM101.047,91.221L110.339,91.221C110.676,91.221 110.948,91.494 110.948,91.831L110.948,93.063C110.948,93.401 110.676,93.674 110.339,93.674L109.577,93.674L109.577,100.997L117.277,115.42C119.142,118.225 117.923,120.5 114.555,120.5L97.476,120.5C94.107,120.5 92.845,118.198 94.657,115.358L101.745,100.998L101.745,93.674L101.047,93.674C100.71,93.674 100.437,93.401 100.437,93.063L100.437,91.831C100.437,91.494 100.71,91.221 101.047,91.221ZM104.184,93.674L104.184,101.567L103.932,102.077L100.849,108.326L110.723,108.326L107.424,102.146L107.136,101.608L107.136,93.674L104.184,93.674Z" style="fill:white;fill-rule:nonzero;"/>
            </g>
        </g>
    </g>
</svg>
