<?xml version="1.0" encoding="UTF-8" standalone="no"?>
<!DOCTYPE svg PUBLIC "-//W3C//DTD SVG 1.1//EN" "http://www.w3.org/Graphics/SVG/1.1/DTD/svg11.dtd">
<svg width="100%" height="100%" viewBox="0 0 512 512" version="1.1" xmlns="http://www.w3.org/2000/svg" xmlns:xlink="http://www.w3.org/1999/xlink" xml:space="preserve" xmlns:serif="http://www.serif.com/" style="fill-rule:evenodd;clip-rule:evenodd;stroke-linejoin:round;stroke-miterlimit:2;">
    <rect id="icone-padrao" x="0" y="0" width="512" height="512" style="fill:none;"/>
    <g id="icone-padrao1" serif:id="icone-padrao">
        <g transform="matrix(2.6,0,0,2.6,98.7,98.7)">
            <path d="M35.631,0.5L85.268,0.5L110.161,25.293L85.218,25.293L75.983,34.527L75.983,79.897L70.564,85.317L41.002,85.317L35.631,79.947L35.631,0.5ZM22.783,13.348L22.783,85.419L35.631,98.267L65.092,98.267L81.554,81.805L81.554,36.937L87.928,30.512L115.281,30.512L120.5,35.631L90.487,35.631L86.974,39.146L86.974,84.566L51.04,120.5L35.532,120.5L0.5,85.419L0.5,35.631L22.783,13.348ZM93.097,40.801L120.299,40.801L120.299,85.317L85.168,120.5L58.417,120.5L58.367,120.45L92.144,86.674L92.144,41.754L93.097,40.801Z" style="fill:white;fill-rule:nonzero;"/>
        </g>
    </g>
</svg>
