<?xml version="1.0" encoding="UTF-8" standalone="no"?>
<!DOCTYPE svg PUBLIC "-//W3C//DTD SVG 1.1//EN" "http://www.w3.org/Graphics/SVG/1.1/DTD/svg11.dtd">
<svg width="100%" height="100%" viewBox="0 0 512 512" version="1.1" xmlns="http://www.w3.org/2000/svg" xmlns:xlink="http://www.w3.org/1999/xlink" xml:space="preserve" xmlns:serif="http://www.serif.com/" style="fill-rule:evenodd;clip-rule:evenodd;stroke-linejoin:round;stroke-miterlimit:2;">
    <g transform="matrix(1,0,0,1,0,-612)">
        <g id="moodle" transform="matrix(1,0,0,1,0,612)">
            <rect x="0" y="0" width="512" height="512" style="fill:none;"/>
            <g transform="matrix(2.6,0,0,2.6,98.7,148.1)">
                <path d="M78.867,0.663C81.847,0.76 79.363,3.416 70.742,9.536C62.94,15.075 57.943,14.321 66.692,19.709L71.851,23.343L74.646,21.499C79.137,18.534 85.968,17.132 93.671,17.594C107.997,18.452 117.52,25.181 119.87,36.103C120.388,38.513 120.601,47.501 120.455,60.906L120.227,81.929L100.31,81.929L99.941,60.503C99.618,41.755 99.411,38.829 98.284,37.111C95.331,32.61 86.445,32.857 83.901,37.511C82.766,39.586 82.577,42.529 82.379,61.111L82.153,82.339L72.052,82.134L61.95,81.929L61.581,60.004C61.226,38.92 61.153,38.016 59.653,36.518L58.095,34.961L54.49,36.785C52.507,37.788 49.48,39.029 47.762,39.543L44.637,40.478L44.443,61.203L44.246,81.929L34.615,82.134C29.318,82.247 24.754,82.108 24.473,81.827C24.191,81.545 23.96,71.128 23.96,58.678C23.96,46.228 23.752,34.047 23.497,31.61L23.034,27.178L15.486,26.691C11.335,26.422 7.393,26.41 6.728,26.666C5.121,27.282 5.066,37.519 6.625,45.664C7.821,51.915 8.139,66.07 7.083,66.07C5.883,66.07 4.93,64.251 3.282,58.806C1.938,54.365 1.731,52.429 2.135,48.108C2.406,45.206 2.696,39.281 2.781,34.941C2.917,27.968 2.785,27.009 1.645,26.711C-0.9,26.046 0.482,24.802 9.021,20.075C27.485,9.856 42.007,5.291 65.639,2.279C70.507,1.659 75.736,0.982 77.258,0.775C77.904,0.687 78.442,0.65 78.867,0.663Z" style="fill:white;fill-rule:nonzero;"/>
            </g>
        </g>
    </g>
</svg>
