<?xml version="1.0" encoding="UTF-8" standalone="no"?>
<!DOCTYPE svg PUBLIC "-//W3C//DTD SVG 1.1//EN" "http://www.w3.org/Graphics/SVG/1.1/DTD/svg11.dtd">
<svg width="100%" height="100%" viewBox="0 0 512 512" version="1.1" xmlns="http://www.w3.org/2000/svg" xmlns:xlink="http://www.w3.org/1999/xlink" xml:space="preserve" xmlns:serif="http://www.serif.com/" style="fill-rule:evenodd;clip-rule:evenodd;stroke-linejoin:round;stroke-miterlimit:2;">
    <g transform="matrix(1,0,0,1,-1224,-1224)">
        <g id="potal-tecnico" transform="matrix(1,0,0,1,1224,1224)">
            <rect x="0" y="0" width="512" height="512" style="fill:none;"/>
            <g transform="matrix(2.6,0,0,2.6,98.6997,98.7)">
                <path d="M8.125,0.5L112.87,0.5C115.518,0.5 117.658,2.638 117.658,5.284L117.658,78.235C117.658,80.859 115.517,83.017 112.878,83.019L8.126,83.019C5.495,83.019 3.34,80.86 3.34,78.236L3.34,5.284C3.34,2.636 5.493,0.5 8.125,0.5ZM12.899,10.06L12.899,73.454L108.099,73.454L108.099,10.06L12.899,10.06ZM60.5,15.869C63.535,15.869 65.995,18.329 65.995,21.364C65.995,24.399 63.535,26.86 60.5,26.86C57.465,26.86 55.004,24.399 55.004,21.364C55.004,18.329 57.465,15.869 60.5,15.869ZM59.173,27.162L60.5,28.556L61.868,27.176C63.805,27.651 65.631,29.1 66.031,31.128L74.899,31.128C75.336,31.128 75.688,31.484 75.689,31.919L75.689,46.098C75.689,46.533 75.336,46.887 74.899,46.887L71.236,46.887C71.233,46.893 71.233,46.898 71.232,46.903C70.902,47.757 70.084,48.283 69.219,48.283C68.961,48.283 68.699,48.237 68.444,48.14C67.849,47.91 67.419,47.443 67.209,46.889L65.722,46.889L65.722,63.323C65.722,64.715 64.594,65.845 63.201,65.845C61.81,65.845 60.68,64.715 60.68,63.323L60.68,46.889L60.321,46.889L60.321,63.324C60.321,64.717 59.193,65.845 57.8,65.845C56.408,65.845 55.279,64.717 55.279,63.324L55.279,46.89L53.901,46.89C53.691,47.444 53.262,47.91 52.666,48.14C52.411,48.237 52.148,48.285 51.89,48.285C51.026,48.285 50.21,47.759 49.88,46.905C49.878,46.899 49.879,46.894 49.876,46.889L46.101,46.889C45.665,46.889 45.311,46.533 45.311,46.098L45.311,31.921C45.311,31.485 45.665,31.13 46.101,31.13L54.967,31.13C55.371,29.09 57.212,27.63 59.16,27.165C59.164,27.163 59.169,27.163 59.173,27.162ZM46.892,32.71L46.892,45.307L49.622,45.307C49.675,44.739 49.893,44.311 50.128,44.016C50.643,43.366 51.47,43.031 52.288,43.146C53.377,43.296 54.15,44.236 54.137,45.307L66.972,45.307C66.958,44.236 67.734,43.295 68.822,43.146C69.639,43.035 70.467,43.366 70.982,44.016C71.217,44.311 71.433,44.739 71.486,45.307L74.107,45.307L74.107,32.71L46.892,32.71ZM58.411,33.874L62.58,33.874L64.672,35.957L62.577,35.957L61.801,36.731L61.801,40.543L61.345,40.999L58.862,40.999L58.411,40.547L58.411,33.874ZM57.332,34.952L57.332,41.007L58.411,42.085L60.885,42.085L62.27,40.703L62.27,36.934L62.804,36.395L65.103,36.395L65.541,36.824L63.02,36.824L62.724,37.12L62.724,40.936L59.705,43.955L58.402,43.955L55.46,41.007L55.46,36.824L57.332,34.952ZM63.239,37.259L65.524,37.259L65.524,40.999L62.573,43.955L60.324,43.955L60.321,43.95L63.159,41.111L63.159,37.339L63.239,37.259ZM102.92,89.883C109.204,89.883 115.713,94.828 117.424,100.855L119.894,109.566C121.599,115.593 117.846,120.53 111.585,120.5L9.51,120.444C3.227,120.444 -0.542,115.485 1.066,109.436L3.402,100.894C5.036,94.83 11.519,89.885 17.763,89.885L102.92,89.885L102.92,89.883Z" style="fill:white;fill-rule:nonzero;"/>
            </g>
        </g>
    </g>
</svg>
