<?xml version="1.0" encoding="UTF-8" standalone="no"?>
<!DOCTYPE svg PUBLIC "-//W3C//DTD SVG 1.1//EN" "http://www.w3.org/Graphics/SVG/1.1/DTD/svg11.dtd">
<svg width="100%" height="100%" viewBox="0 0 512 512" version="1.1" xmlns="http://www.w3.org/2000/svg" xmlns:xlink="http://www.w3.org/1999/xlink" xml:space="preserve" xmlns:serif="http://www.serif.com/" style="fill-rule:evenodd;clip-rule:evenodd;stroke-linejoin:round;stroke-miterlimit:2;">
    <g transform="matrix(1,0,0,1,0,-1224)">
        <g id="portal-discente" transform="matrix(1,0,0,1,0,1224)">
            <rect x="0" y="0" width="512" height="512" style="fill:none;"/>
            <g transform="matrix(2.6,0,0,2.6,98.6997,98.7)">
                <path d="M8.125,0.5L112.87,0.5C115.518,0.5 117.658,2.638 117.658,5.284L117.658,78.235C117.658,80.859 115.517,83.017 112.878,83.019L8.126,83.019C5.495,83.019 3.34,80.86 3.34,78.236L3.34,5.284C3.34,2.636 5.493,0.5 8.125,0.5ZM12.899,10.06L12.899,73.454L108.099,73.454L108.099,10.06L12.899,10.06ZM54.141,16.997L65.999,16.997C66.676,16.997 66.975,17.36 66.975,17.813L66.975,22.745C66.975,23.196 66.609,23.561 66.159,23.561C65.705,23.561 65.343,23.167 65.343,22.745L65.343,18.629L64.599,18.629L64.599,21.887L55.542,21.887L55.542,18.629L54.141,18.629C53.466,18.629 53.167,18.266 53.167,17.813C53.167,17.36 53.466,16.997 54.141,16.997ZM55.511,23.289L64.572,23.289C64.577,23.379 64.599,23.463 64.599,23.555C64.599,26.072 62.561,28.112 60.042,28.112C57.525,28.112 55.484,26.072 55.484,23.555C55.484,23.463 55.504,23.379 55.511,23.289ZM56.555,28.991L63.632,28.991C64.58,28.991 65.372,29.317 65.754,30.154L72.254,44.394C72.702,45.373 72.27,46.528 71.29,46.975C70.314,47.419 69.156,46.995 68.709,46.011L66.166,40.445L67.067,57.682C67.083,57.975 66.976,58.262 66.774,58.475C66.572,58.688 66.293,58.808 65.998,58.808L65.574,58.808L65.574,63.392C65.574,64.683 64.527,65.731 63.235,65.731C61.943,65.731 60.894,64.683 60.894,63.392L60.894,58.808L59.191,58.808L59.191,63.392C59.191,64.683 58.143,65.731 56.851,65.731C55.56,65.731 54.512,64.683 54.512,63.392L54.512,58.808L54.091,58.808C53.798,58.808 53.514,58.688 53.314,58.474C53.109,58.26 53.004,57.972 53.022,57.677L53.832,43.212C54.457,43.348 56.285,43.793 56.861,43.793C58.055,43.793 59.152,43.157 59.76,42.15L62.255,41.198C63.621,40.677 64.289,39.151 63.774,37.802L61.2,31.063C60.687,29.716 59.168,29.021 57.805,29.542L54.569,30.78L53.601,31.149L54.499,29.853C54.962,29.186 55.716,28.991 56.555,28.991ZM58.777,30.931C59.195,30.945 59.584,31.203 59.743,31.619L62.317,38.357C62.528,38.916 62.246,39.533 61.698,39.742L60.241,40.297C60.2,38.774 59.137,37.415 57.581,37.076L53.791,36.247L53.006,34.191C52.795,33.639 53.071,33.02 53.626,32.809L58.358,31C58.496,30.947 58.638,30.926 58.777,30.931ZM57.314,32.718L56.063,33.198L56.832,35.202L57.02,35.286L57.765,35L57.849,34.811L57.409,33.666L57.553,33.343L58.183,33.102L57.314,32.718ZM58.363,33.184L57.671,33.449L57.573,33.673L58.008,34.805L57.752,35.379L57.009,35.665L56.561,35.464L55.862,33.646L55.517,34.424L55.999,35.681L57.223,36.226L57.613,36.077L58.172,34.821L57.731,33.676L57.786,33.553L58.543,33.263L58.363,33.184ZM58.588,33.395L57.903,33.658L57.888,33.692L58.322,34.824L57.797,36.003L57.799,36.005L58.474,35.746L59.021,34.518L58.588,33.395ZM51.424,34.285C51.453,34.44 51.492,34.595 51.548,34.748L52.593,37.483L53.101,37.594L57.165,38.482C58.216,38.712 58.882,39.75 58.651,40.802C58.454,41.713 57.647,42.336 56.75,42.336C56.428,42.336 50.419,40.998 50.092,40.927C49.442,40.785 48.906,40.266 48.695,39.734C48.482,39.192 48.535,38.448 48.909,37.911L48.915,37.9C48.916,37.898 48.917,37.896 48.917,37.895L51.424,34.285ZM102.92,89.883C109.204,89.883 115.713,94.828 117.424,100.855L119.894,109.566C121.599,115.593 117.846,120.53 111.585,120.5L9.51,120.444C3.227,120.444 -0.542,115.485 1.066,109.436L3.402,100.894C5.036,94.83 11.519,89.885 17.763,89.885L102.92,89.885L102.92,89.883Z" style="fill:white;fill-rule:nonzero;"/>
            </g>
        </g>
    </g>
</svg>
