<?xml version="1.0" encoding="UTF-8" standalone="no"?>
<!DOCTYPE svg PUBLIC "-//W3C//DTD SVG 1.1//EN" "http://www.w3.org/Graphics/SVG/1.1/DTD/svg11.dtd">
<svg width="100%" height="100%" viewBox="0 0 512 512" version="1.1" xmlns="http://www.w3.org/2000/svg" xmlns:xlink="http://www.w3.org/1999/xlink" xml:space="preserve" xmlns:serif="http://www.serif.com/" style="fill-rule:evenodd;clip-rule:evenodd;stroke-linejoin:round;stroke-miterlimit:2;">
    <g transform="matrix(1,0,0,1,-612,0)">
        <g id="portal-docente" transform="matrix(1,0,0,1,612,0)">
            <rect x="0" y="0" width="512" height="512" style="fill:none;"/>
            <g transform="matrix(2.59156,0,0,2.59156,99.2105,99.211)">
                <path d="M7.954,0.304L113.04,0.304C115.697,0.304 117.844,2.449 117.844,5.104L117.844,78.293C117.844,80.925 115.697,83.091 113.049,83.092L7.955,83.092C5.315,83.092 3.154,80.926 3.154,78.294L3.154,5.104C3.154,2.448 5.314,0.304 7.954,0.304ZM12.743,9.895L12.743,73.496L108.254,73.496L108.254,9.895L12.743,9.895ZM46.083,16.585C49.135,16.585 51.609,19.059 51.609,22.111C51.609,25.162 49.134,27.635 46.083,27.635C43.032,27.635 40.558,25.162 40.557,22.111C40.557,19.059 43.032,16.585 46.083,16.585ZM58.638,20.907L84.428,20.907C85.173,20.907 85.777,21.512 85.777,22.256L85.777,39.333C85.777,40.078 85.173,40.682 84.428,40.682L64.126,40.682C65.156,40.218 65.879,39.177 65.879,37.974C65.879,37.326 65.668,36.727 65.317,36.241L70.493,29.897C70.823,29.497 70.768,28.909 70.374,28.58C69.97,28.235 69.35,28.309 69.015,28.72L63.78,35.136C63.5,35.055 63.21,35.005 62.907,35.005L62.907,35.011L58.509,35.011L57.29,33.468L57.29,22.256C57.29,21.512 57.894,20.907 58.638,20.907ZM74.971,24.515L74.971,30.136L75.352,30.515L77.443,30.515L77.825,30.132L77.825,26.922L78.479,26.268L80.244,26.268L78.484,24.515L74.971,24.515ZM74.062,25.423L72.486,27L72.486,30.523L74.964,33.003L76.062,33.003L78.604,30.462L78.604,27.248L78.853,27L80.975,27L80.606,26.639L78.672,26.639L78.221,27.093L78.221,30.267L77.055,31.431L74.971,31.431L74.062,30.523L74.062,25.423ZM79.036,27.366L78.969,27.434L78.969,30.611L76.579,33.001L76.584,33.003L78.476,33.003L80.962,30.515L80.962,27.366L79.036,27.366ZM38.313,29.406L50.599,29.406C51.916,29.406 53.162,30.01 53.982,31.04L57.285,35.205L57.981,36.085C57.981,36.085 61.11,36.084 62.912,36.09C63.656,36.09 64.261,36.694 64.261,37.439L64.261,38.513C64.261,39.258 63.656,39.862 62.912,39.862L57.074,39.862C56.497,39.862 55.952,39.597 55.596,39.144L53.134,35.982C53.01,35.82 52.812,35.724 52.607,35.724L52.439,35.724C52.072,35.724 51.771,36.02 51.771,36.392L51.749,63.693C51.749,64.438 51.144,65.043 50.399,65.043L48.133,65.043C47.389,65.043 46.784,64.438 46.784,63.693L46.784,52.385C46.784,51.985 46.46,51.662 46.061,51.662C45.662,51.662 45.34,51.985 45.34,52.385L45.34,63.639C45.34,64.411 44.708,65.043 43.936,65.043L41.718,65.043C40.974,65.043 40.369,64.438 40.369,63.693L40.359,36.392C40.359,36.025 40.063,35.724 39.69,35.724C39.323,35.724 39.02,36.02 39.02,36.392L39.02,46.891C39.02,47.636 38.416,48.24 37.671,48.24L36.572,48.24C35.827,48.24 35.223,47.636 35.223,46.891L35.223,32.496C35.223,30.786 36.608,29.406 38.313,29.406ZM103.059,89.979C109.363,89.979 115.893,94.94 117.609,100.986L120.087,109.726C121.798,115.772 118.033,120.726 111.751,120.695L9.344,120.64C3.04,120.64 -0.741,115.664 0.872,109.595L3.216,101.026C4.856,94.942 11.359,89.98 17.624,89.98L103.059,89.98L103.059,89.979Z" style="fill:white;fill-rule:nonzero;"/>
            </g>
        </g>
    </g>
</svg>
