<?xml version="1.0" encoding="UTF-8" standalone="no"?>
<!DOCTYPE svg PUBLIC "-//W3C//DTD SVG 1.1//EN" "http://www.w3.org/Graphics/SVG/1.1/DTD/svg11.dtd">
<svg width="100%" height="100%" viewBox="0 0 512 512" version="1.1" xmlns="http://www.w3.org/2000/svg" xmlns:xlink="http://www.w3.org/1999/xlink" xml:space="preserve" xmlns:serif="http://www.serif.com/" style="fill-rule:evenodd;clip-rule:evenodd;stroke-linejoin:round;stroke-miterlimit:2;">
    <g transform="matrix(1,0,0,1,-1836,-612)">
        <g id="servicos-ti" transform="matrix(1,0,0,1,1836,612)">
            <rect x="0" y="0" width="512" height="512" style="fill:none;"/>
            <g transform="matrix(2.6,0,0,2.6,98.7,119.499)">
                <path d="M6.969,0.973L37.152,0.973C40.708,0.973 43.618,3.884 43.618,7.44L43.618,10.802C42.249,11.267 41.249,12.52 41.249,14.044L41.249,16.806C40.662,14.935 38.976,13.548 36.915,13.548L33.096,13.548C33.565,12.958 33.888,12.244 33.888,11.433L33.888,8.114C33.888,6.205 32.336,4.651 30.425,4.651L27.109,4.651C25.201,4.651 23.648,6.205 23.648,8.114L23.648,11.436C23.648,13.347 25.201,14.899 27.109,14.899L27.434,14.899C26.595,15.733 26.072,16.888 26.072,18.16L26.072,24.397C26.072,24.571 26.155,24.721 26.173,24.889C25.864,24.797 25.552,24.694 25.214,24.694L21.894,24.694C19.986,24.694 18.431,26.246 18.431,28.157L18.431,31.475C18.431,33.382 19.986,34.94 21.894,34.94L25.214,34.94C25.998,34.94 26.683,34.632 27.264,34.191C26.886,34.838 26.614,35.544 26.614,36.346L26.614,41.974C26.614,44.381 28.571,46.345 30.982,46.345L36.612,46.345C39.023,46.345 40.981,44.386 40.981,41.974L40.981,41.608C41.688,42.322 42.618,42.753 43.619,43.008L43.619,59.184C43.619,62.74 40.713,65.653 37.152,65.653L6.969,65.653C3.411,65.653 0.5,62.74 0.5,59.184L0.5,7.44C0.5,3.884 3.409,0.973 6.969,0.973ZM27.109,6.807L30.425,6.807C31.145,6.807 31.735,7.395 31.735,8.114L31.735,11.433C31.735,12.15 31.143,12.74 30.425,12.74L27.109,12.74C26.391,12.74 25.802,12.15 25.802,11.433L25.802,8.114C25.802,7.395 26.391,6.807 27.109,6.807ZM53.169,7.269L55.287,7.269C55.743,7.269 56.122,7.644 56.122,8.102L56.122,10.222C56.122,10.681 55.743,11.057 55.287,11.057L53.169,11.057C52.71,11.057 52.337,10.681 52.337,10.222L52.337,8.102C52.337,7.643 52.71,7.269 53.169,7.269ZM71.037,12.255C80.645,14.177 90.253,19.941 92.175,33.393L99.862,33.393L86.41,46.846L72.959,33.393L80.837,33.393C80.837,23.784 77.763,17.059 71.037,12.255ZM44.712,12.74L48.033,12.74C48.752,12.74 49.342,13.327 49.342,14.046L49.342,17.366C49.342,18.084 48.752,18.672 48.033,18.672L44.715,18.672C43.996,18.672 43.408,18.084 43.408,17.366L43.407,17.366L43.407,14.046C43.407,13.328 43.997,12.741 44.712,12.74ZM57.672,12.743L63.297,12.743C64.515,12.743 65.511,13.737 65.511,14.956L65.511,20.584C65.511,21.804 64.516,22.799 63.297,22.799L57.669,22.799C56.45,22.799 55.455,21.804 55.455,20.584L55.458,20.584L55.458,14.956C55.458,13.738 56.453,12.743 57.672,12.743ZM19.794,14.714C18.02,14.714 16.577,16.157 16.577,17.93L16.577,20.63C16.577,22.404 18.02,23.848 19.794,23.848L22.49,23.848C24.266,23.848 25.71,22.404 25.71,20.63L25.71,17.93C25.71,16.156 24.266,14.714 22.49,14.714L19.794,14.714ZM30.682,15.708L36.918,15.708C38.266,15.708 39.373,16.814 39.373,18.16L39.373,24.397C39.373,25.748 38.266,26.852 36.918,26.852L30.682,26.852C29.33,26.852 28.228,25.748 28.228,24.397L28.227,24.397L28.227,18.16C28.227,16.814 29.333,15.708 30.682,15.708ZM19.797,16.869L22.493,16.869C23.077,16.869 23.557,17.347 23.557,17.93L23.557,20.63C23.557,21.214 23.077,21.69 22.493,21.69L19.797,21.69C19.21,21.69 18.736,21.216 18.736,20.63L18.736,17.93C18.736,17.347 19.21,16.869 19.797,16.869ZM41.526,18.713C41.91,19.622 42.676,20.324 43.619,20.637L43.619,23.606C42.833,23.829 42.093,24.165 41.472,24.674C41.477,24.579 41.526,24.497 41.526,24.397L41.526,18.713ZM44.966,25.499L53.714,25.499C55.605,25.499 57.153,27.051 57.153,28.943L57.153,37.691C57.153,39.582 55.605,41.133 53.714,41.133L44.966,41.133C43.069,41.133 41.523,39.582 41.523,37.691L41.523,28.943C41.523,27.048 43.071,25.499 44.966,25.499ZM21.894,26.852L25.214,26.852C25.932,26.852 26.52,27.441 26.52,28.159L26.52,31.48C26.52,32.197 25.933,32.785 25.214,32.785L21.894,32.785C21.177,32.785 20.587,32.197 20.587,31.48L20.587,28.159C20.587,27.438 21.176,26.852 21.894,26.852ZM63.052,26.852L65.747,26.852C66.33,26.852 66.812,27.331 66.812,27.914L66.812,30.614C66.812,31.2 66.33,31.674 65.747,31.674L63.052,31.674C62.465,31.674 61.99,31.2 61.99,30.614L61.99,27.914C61.99,27.331 62.465,26.852 63.052,26.852ZM39.543,28.083C39.497,28.375 39.367,28.637 39.367,28.943L39.367,33.032C38.609,32.4 37.675,31.975 36.616,31.975L30.985,31.975C29.954,31.975 29.042,32.387 28.293,32.988C28.523,32.527 28.678,32.025 28.678,31.48L28.678,28.505C29.291,28.803 29.954,29.01 30.682,29.01L30.682,29.008L36.918,29.008C37.913,29.008 38.785,28.624 39.543,28.083ZM30.982,34.131L36.612,34.131C37.833,34.131 38.826,35.124 38.826,36.346L38.826,41.974C38.826,43.193 37.833,44.187 36.612,44.187L30.982,44.187C29.763,44.187 28.769,43.193 28.769,41.974L28.769,36.346C28.769,35.125 29.763,34.131 30.982,34.131ZM61.614,54.479L110.233,54.479C113.575,54.479 116.286,57.194 116.286,60.535L116.286,91.219C116.286,92.004 116.558,92.761 117.058,93.375L120.142,97.144C120.384,97.444 120.513,97.802 120.499,98.173L120.499,99.929C120.499,102.185 118.672,104.028 116.402,104.028L55.416,104.028C53.16,104.028 51.317,102.199 51.317,99.929L51.317,98.173C51.317,97.802 51.448,97.43 51.676,97.144L54.787,93.317C55.287,92.703 55.559,91.947 55.559,91.162L55.559,60.535C55.559,57.194 58.272,54.479 61.614,54.479ZM61.614,60.504L61.599,60.52L61.599,91.562L110.274,91.562L110.274,60.52L90.357,60.504L61.614,60.504ZM79.375,97.601L79.375,98.044C79.375,99.2 80.304,100.128 81.461,100.128L90.399,100.128C91.556,100.128 92.484,99.2 92.484,98.044L92.484,97.601L79.375,97.601Z" style="fill:white;fill-rule:nonzero;"/>
            </g>
        </g>
    </g>
</svg>
