<?xml version="1.0" encoding="UTF-8" standalone="no"?><!DOCTYPE svg PUBLIC "-//W3C//DTD SVG 1.1//EN" "http://www.w3.org/Graphics/SVG/1.1/DTD/svg11.dtd"><svg width="100%" height="100%" viewBox="0 0 1390 209" version="1.1" xmlns="http://www.w3.org/2000/svg" xmlns:xlink="http://www.w3.org/1999/xlink" xml:space="preserve" xmlns:serif="http://www.serif.com/" style="fill-rule:evenodd;clip-rule:evenodd;stroke-linejoin:round;stroke-miterlimit:2;"><rect x="0" y="0" width="1390" height="208.333" style="fill:none;"/><clipPath id="_clip1"><rect x="0" y="0" width="1390" height="208.333"/></clipPath><g clip-path="url(#_clip1)"><g><path d="M399.635,0l62.988,0l-0,120.956c-0,11.996 -1.902,23.283 -5.657,33.959c-3.757,10.626 -9.651,19.977 -17.685,27.958c-8.033,7.983 -16.448,13.556 -25.29,16.815c-12.262,4.487 -26.95,6.754 -44.162,6.754c-9.935,0 -20.77,-0.662 -32.511,-2.08c-11.746,-1.367 -21.538,-4.107 -29.429,-8.215c-7.887,-4.111 -15.115,-9.968 -21.675,-17.523c-6.56,-7.557 -11.029,-15.35 -13.454,-23.381c-3.897,-12.893 -5.846,-24.323 -5.846,-34.287l-0,-120.956l62.986,0l0,123.837c0,11.099 3.092,19.741 9.221,25.928c6.18,6.234 14.736,9.354 25.718,9.354c10.839,-0 19.396,-3.071 25.576,-9.211c6.13,-6.092 9.22,-14.829 9.22,-26.071l0,-123.837Zm105.01,0l156.015,0l0,43.594l-92.647,-0l-0,35.422l79.1,-0l0,40.948l-79.1,-0l-0,82.888l-63.368,0l0,-202.852Zm322.819,0l62.987,0l-0,120.956c-0,11.996 -1.901,23.283 -5.656,33.959c-3.758,10.626 -9.652,19.977 -17.682,27.958c-8.036,7.983 -16.451,13.556 -25.293,16.815c-12.262,4.487 -26.95,6.754 -44.16,6.754c-9.937,0 -20.773,-0.662 -32.513,-2.08c-11.744,-1.367 -21.538,-4.107 -29.429,-8.215c-7.888,-4.111 -15.115,-9.968 -21.675,-17.523c-6.56,-7.557 -11.029,-15.35 -13.452,-23.381c-3.897,-12.893 -5.846,-24.323 -5.846,-34.287l0,-120.956l62.984,0l0,123.837c0,11.099 3.092,19.741 9.223,25.928c6.178,6.234 14.737,9.354 25.716,9.354c10.839,-0 19.396,-3.071 25.575,-9.211c6.13,-6.092 9.221,-14.829 9.221,-26.071l0,-123.837Z" style="fill:#fff;fill-rule:nonzero;"/><path d="M951.574,0.851l10.2,0l0,27.362c0,4.341 0.128,7.164 0.376,8.446c0.436,2.072 1.483,3.73 3.116,4.978c1.648,1.258 3.895,1.881 6.741,1.881c2.896,-0 5.082,-0.589 6.553,-1.776c1.47,-1.177 2.352,-2.635 2.648,-4.354c0.305,-1.728 0.445,-4.586 0.445,-8.586l0,-27.951l10.2,0l0,26.54c0,6.069 -0.271,10.351 -0.824,12.856c-0.554,2.507 -1.566,4.611 -3.046,6.342c-1.483,1.716 -3.472,3.094 -5.941,4.116c-2.483,1.024 -5.729,1.53 -9.729,1.53c-4.823,0 -8.482,-0.553 -10.974,-1.67c-2.495,-1.118 -4.46,-2.566 -5.907,-4.342c-1.445,-1.776 -2.4,-3.647 -2.859,-5.598c-0.669,-2.896 -0.999,-7.165 -0.999,-12.823l0,-26.951Z" style="fill:#fff;fill-rule:nonzero;"/><path d="M1036.11,51.376l-9.681,0l-0,-18.682c-0,-3.95 -0.211,-6.502 -0.624,-7.667c-0.411,-1.155 -1.092,-2.059 -2.021,-2.708c-0.93,-0.634 -2.05,-0.965 -3.355,-0.965c-1.68,0 -3.186,0.461 -4.516,1.378c-1.331,0.929 -2.247,2.142 -2.74,3.657c-0.496,1.519 -0.742,4.319 -0.742,8.412l-0,16.575l-9.681,0l-0,-36.597l8.987,0l-0,5.376c3.199,-4.141 7.222,-6.211 12.069,-6.211c2.129,0 4.093,0.389 5.859,1.153c1.763,0.776 3.103,1.753 4.011,2.953c0.906,1.2 1.54,2.553 1.893,4.071c0.366,1.516 0.541,3.682 0.541,6.505l-0,22.75Zm10.1,-41.562l-0,-8.963l9.682,0l-0,8.963l-9.682,0Zm-0,41.562l-0,-36.597l9.682,0l-0,36.597l-9.682,0Zm29.946,0l-14.751,-36.597l10.165,0l6.894,18.681l1.999,6.236c0.528,-1.589 0.871,-2.635 0.999,-3.142c0.331,-1.034 0.672,-2.072 1.037,-3.094l6.964,-18.681l9.962,0l-14.551,36.597l-8.718,0Zm50.663,-11.645l9.657,1.61c-1.246,3.542 -3.199,6.235 -5.882,8.081c-2.67,1.859 -6.022,2.778 -10.045,2.778c-6.365,-0 -11.069,-2.071 -14.128,-6.235c-2.412,-3.328 -3.624,-7.539 -3.624,-12.612c-0,-6.07 1.587,-10.821 4.764,-14.256c3.164,-3.437 7.177,-5.153 12.024,-5.153c5.446,0 9.739,1.799 12.893,5.399c3.141,3.6 4.646,9.105 4.516,16.527l-24.268,-0c0.07,2.871 0.847,5.108 2.34,6.696c1.495,1.598 3.364,2.4 5.588,2.4c1.518,-0 2.788,-0.413 3.823,-1.237c1.037,-0.834 1.824,-2.165 2.342,-3.998Zm0.554,-9.787c-0.072,-2.814 -0.789,-4.942 -2.167,-6.4c-1.375,-1.458 -3.058,-2.19 -5.032,-2.19c-2.12,0 -3.86,0.777 -5.236,2.32c-1.377,1.528 -2.059,3.622 -2.037,6.27l14.472,0Zm27.063,21.432l-9.681,0l0,-36.597l8.987,0l0,5.201c1.541,-2.461 2.928,-4.084 4.151,-4.861c1.235,-0.776 2.625,-1.175 4.188,-1.175c2.212,0 4.329,0.612 6.375,1.834l-2.998,8.437c-1.623,-1.047 -3.141,-1.578 -4.542,-1.578c-1.365,-0 -2.505,0.366 -3.446,1.118c-0.952,0.74 -1.681,2.094 -2.223,4.047c-0.54,1.951 -0.811,6.047 -0.811,12.269l-0,11.305Zm15.065,-10.446l9.717,-1.483c0.413,1.882 1.247,3.317 2.517,4.293c1.26,0.978 3.023,1.471 5.306,1.471c2.504,0 4.388,-0.458 5.645,-1.387c0.86,-0.636 1.283,-1.506 1.283,-2.576c0,-0.741 -0.236,-1.352 -0.694,-1.835c-0.48,-0.459 -1.563,-0.882 -3.234,-1.271c-7.813,-1.718 -12.765,-3.293 -14.859,-4.716c-2.893,-1.977 -4.339,-4.73 -4.339,-8.246c0,-3.167 1.245,-5.837 3.753,-7.988c2.505,-2.165 6.387,-3.248 11.645,-3.248c5.01,0 8.74,0.825 11.175,2.448c2.435,1.633 4.105,4.046 5.022,7.245l-9.128,1.683c-0.388,-1.423 -1.129,-2.518 -2.222,-3.272c-1.094,-0.763 -2.648,-1.139 -4.672,-1.139c-2.552,-0 -4.375,0.352 -5.48,1.069c-0.729,0.506 -1.094,1.165 -1.094,1.966c-0,0.694 0.318,1.27 0.963,1.752c0.872,0.648 3.884,1.552 9.049,2.73c5.149,1.165 8.75,2.6 10.798,4.306c2.021,1.728 3.034,4.128 3.034,7.199c0,3.351 -1.4,6.245 -4.211,8.657c-2.801,2.413 -6.941,3.612 -12.434,3.612c-4.988,-0 -8.928,-1.012 -11.847,-3.036c-2.905,-2.011 -4.799,-4.764 -5.693,-8.234Zm42.945,-31.116l-0,-8.963l9.682,0l-0,8.963l-9.682,0Zm-0,41.562l-0,-36.597l9.682,0l-0,36.597l-9.682,0Zm53.45,0l-8.988,0l0,-5.375c-1.493,2.094 -3.256,3.646 -5.293,4.669c-2.034,1.025 -4.083,1.53 -6.152,1.53c-4.211,-0 -7.81,-1.695 -10.811,-5.083c-2.989,-3.388 -4.494,-8.115 -4.494,-14.175c-0,-6.21 1.46,-10.929 4.376,-14.151c2.918,-3.224 6.611,-4.847 11.069,-4.847c4.084,0 7.623,1.707 10.611,5.106l0,-18.199l9.682,0l0,50.525Zm-25.844,-19.093c0,3.906 0.542,6.728 1.624,8.482c1.553,2.517 3.74,3.788 6.54,3.788c2.234,-0 4.128,-0.953 5.694,-2.846c1.553,-1.893 2.34,-4.73 2.34,-8.494c-0,-4.198 -0.765,-7.235 -2.27,-9.08c-1.518,-1.85 -3.459,-2.779 -5.834,-2.779c-2.294,0 -4.213,0.92 -5.764,2.744c-1.553,1.82 -2.33,4.551 -2.33,8.185Zm42.907,-6.34l-8.787,-1.588c0.99,-3.542 2.683,-6.152 5.095,-7.858c2.423,-1.693 6,-2.553 10.751,-2.553c4.329,0 7.541,0.517 9.657,1.541c2.107,1.025 3.6,2.318 4.459,3.893c0.859,1.578 1.295,4.459 1.295,8.672l-0.105,11.305c-0,3.211 0.153,5.586 0.468,7.116c0.308,1.518 0.894,3.165 1.741,4.905l-9.586,0c-0.248,-0.646 -0.564,-1.6 -0.93,-2.858c-0.153,-0.576 -0.271,-0.954 -0.34,-1.143c-1.658,1.614 -3.425,2.813 -5.305,3.626c-1.882,0.798 -3.893,1.199 -6.035,1.199c-3.765,-0 -6.741,-1.024 -8.905,-3.058c-2.177,-2.047 -3.259,-4.637 -3.259,-7.766c-0,-2.059 0.493,-3.905 1.483,-5.528c0.987,-1.623 2.374,-2.858 4.15,-3.717c1.779,-0.859 4.354,-1.611 7.706,-2.26c4.518,-0.847 7.66,-1.645 9.401,-2.374l-0,-0.965c-0,-1.872 -0.459,-3.188 -1.378,-3.988c-0.917,-0.789 -2.645,-1.19 -5.198,-1.19c-1.731,0 -3.071,0.343 -4.036,1.025c-0.963,0.671 -1.74,1.859 -2.342,3.564Zm12.954,7.859c-1.235,0.411 -3.202,0.906 -5.895,1.483c-2.683,0.576 -4.435,1.139 -5.27,1.68c-1.257,0.907 -1.894,2.037 -1.894,3.411c0,1.366 0.506,2.531 1.518,3.518c1.013,0.989 2.293,1.483 3.858,1.483c1.753,-0 3.411,-0.576 5,-1.719c1.177,-0.869 1.941,-1.941 2.304,-3.211c0.261,-0.822 0.379,-2.399 0.379,-4.717l-0,-1.928Zm52.907,17.574l-8.988,0l-0,-5.375c-1.493,2.094 -3.257,3.646 -5.294,4.669c-2.033,1.025 -4.082,1.53 -6.151,1.53c-4.211,-0 -7.811,-1.695 -10.812,-5.083c-2.988,-3.388 -4.493,-8.115 -4.493,-14.175c-0,-6.21 1.46,-10.929 4.375,-14.151c2.919,-3.224 6.611,-4.847 11.07,-4.847c4.083,0 7.623,1.707 10.611,5.106l0,-18.199l9.682,0l0,50.525Zm-25.844,-19.093c-0,3.906 0.541,6.728 1.623,8.482c1.553,2.517 3.74,3.788 6.54,3.788c2.235,-0 4.129,-0.953 5.694,-2.846c1.554,-1.893 2.34,-4.73 2.34,-8.494c0,-4.198 -0.764,-7.235 -2.269,-9.08c-1.518,-1.85 -3.46,-2.779 -5.834,-2.779c-2.295,0 -4.214,0.92 -5.765,2.744c-1.552,1.82 -2.329,4.551 -2.329,8.185Zm56.86,7.448l9.656,1.61c-1.245,3.542 -3.199,6.235 -5.881,8.081c-2.67,1.859 -6.022,2.778 -10.045,2.778c-6.365,-0 -11.069,-2.071 -14.128,-6.235c-2.412,-3.328 -3.625,-7.539 -3.625,-12.612c0,-6.07 1.588,-10.821 4.765,-14.256c3.164,-3.437 7.177,-5.153 12.024,-5.153c5.445,0 9.738,1.799 12.893,5.399c3.141,3.6 4.646,9.105 4.515,16.527l-24.267,-0c0.07,2.871 0.847,5.108 2.339,6.696c1.496,1.598 3.365,2.4 5.589,2.4c1.518,-0 2.788,-0.413 3.822,-1.237c1.038,-0.834 1.825,-2.165 2.343,-3.998Zm0.553,-9.787c-0.073,-2.814 -0.789,-4.942 -2.167,-6.4c-1.374,-1.458 -3.058,-2.19 -5.032,-2.19c-2.119,0 -3.86,0.777 -5.235,2.32c-1.378,1.528 -2.059,3.622 -2.037,6.27l14.471,0Zm-428.688,99.481l0,-50.525l34.644,0l-0,8.553l-24.433,-0l-0,11.95l21.091,0l0,8.552l-21.091,0l-0,21.47l-10.211,-0Zm64.447,-11.646l9.657,1.611c-1.245,3.542 -3.199,6.235 -5.882,8.082c-2.67,1.858 -6.021,2.777 -10.045,2.777c-6.365,0 -11.069,-2.072 -14.127,-6.235c-2.412,-3.329 -3.625,-7.54 -3.625,-12.612c0,-6.069 1.588,-10.821 4.765,-14.256c3.163,-3.437 7.176,-5.153 12.023,-5.153c5.446,0 9.739,1.799 12.893,5.399c3.141,3.599 4.647,9.106 4.516,16.527l-24.267,0c0.069,2.871 0.847,5.108 2.339,6.696c1.496,1.599 3.364,2.4 5.589,2.4c1.517,-0 2.788,-0.414 3.822,-1.237c1.037,-0.835 1.824,-2.165 2.342,-3.999Zm0.553,-9.787c-0.072,-2.813 -0.788,-4.942 -2.166,-6.399c-1.375,-1.458 -3.059,-2.19 -5.032,-2.19c-2.12,0 -3.86,0.777 -5.235,2.32c-1.378,1.528 -2.06,3.621 -2.037,6.269l14.47,0Zm51.355,21.433l-8.988,-0l0,-5.376c-1.493,2.094 -3.256,3.648 -5.293,4.67c-2.034,1.024 -4.083,1.53 -6.152,1.53c-4.211,0 -7.81,-1.696 -10.812,-5.082c-2.988,-3.389 -4.493,-8.117 -4.493,-14.176c0,-6.209 1.46,-10.929 4.376,-14.151c2.919,-3.223 6.61,-4.847 11.069,-4.847c4.083,0 7.623,1.706 10.611,5.106l0,-18.199l9.682,0l-0,50.525Zm-25.844,-19.092c0,3.904 0.541,6.728 1.623,8.481c1.554,2.518 3.74,3.787 6.541,3.787c2.234,0 4.128,-0.952 5.694,-2.845c1.553,-1.894 2.339,-4.73 2.339,-8.494c-0,-4.199 -0.764,-7.234 -2.269,-9.081c-1.518,-1.849 -3.459,-2.778 -5.835,-2.778c-2.294,0 -4.213,0.919 -5.763,2.744c-1.554,1.82 -2.33,4.551 -2.33,8.186Zm56.859,7.446l9.658,1.611c-1.245,3.542 -3.199,6.235 -5.883,8.082c-2.67,1.858 -6.021,2.777 -10.044,2.777c-6.365,0 -11.07,-2.072 -14.127,-6.235c-2.413,-3.329 -3.626,-7.54 -3.626,-12.612c0,-6.069 1.589,-10.821 4.764,-14.256c3.165,-3.437 7.177,-5.153 12.024,-5.153c5.446,0 9.74,1.799 12.894,5.399c3.14,3.599 4.647,9.106 4.516,16.527l-24.267,0c0.069,2.871 0.845,5.108 2.339,6.696c1.496,1.599 3.364,2.4 5.589,2.4c1.517,-0 2.788,-0.414 3.822,-1.237c1.036,-0.835 1.823,-2.165 2.341,-3.999Zm0.554,-9.787c-0.072,-2.813 -0.788,-4.942 -2.166,-6.399c-1.376,-1.458 -3.059,-2.19 -5.033,-2.19c-2.119,0 -3.86,0.777 -5.235,2.32c-1.378,1.528 -2.059,3.621 -2.036,6.269l14.47,0Zm27.064,21.433l-9.681,-0l-0,-36.598l8.987,0l-0,5.201c1.54,-2.46 2.929,-4.083 4.151,-4.859c1.235,-0.777 2.625,-1.176 4.188,-1.176c2.212,0 4.328,0.612 6.375,1.834l-2.999,8.437c-1.622,-1.047 -3.141,-1.578 -4.541,-1.578c-1.365,0 -2.504,0.365 -3.447,1.117c-0.951,0.742 -1.68,2.094 -2.221,4.048c-0.542,1.952 -0.812,6.047 -0.812,12.269l0,11.305Zm25.71,-25.433l-8.787,-1.588c0.99,-3.542 2.683,-6.152 5.095,-7.858c2.422,-1.693 6,-2.553 10.751,-2.553c4.329,0 7.541,0.516 9.657,1.541c2.106,1.025 3.6,2.317 4.459,3.893c0.859,1.578 1.295,4.459 1.295,8.672l-0.105,11.305c-0,3.211 0.152,5.586 0.468,7.116c0.309,1.518 0.894,3.164 1.741,4.905l-9.586,-0c-0.248,-0.646 -0.564,-1.601 -0.93,-2.858c-0.152,-0.576 -0.27,-0.954 -0.34,-1.143c-1.659,1.614 -3.425,2.813 -5.306,3.625c-1.881,0.799 -3.892,1.2 -6.035,1.2c-3.764,0 -6.74,-1.025 -8.904,-3.059c-2.177,-2.046 -3.259,-4.636 -3.259,-7.764c-0,-2.059 0.493,-3.906 1.482,-5.529c0.988,-1.623 2.375,-2.859 4.151,-3.718c1.779,-0.858 4.354,-1.611 7.706,-2.259c4.518,-0.847 7.66,-1.646 9.4,-2.374l0,-0.965c0,-1.871 -0.458,-3.188 -1.377,-3.988c-0.917,-0.789 -2.645,-1.19 -5.198,-1.19c-1.731,0 -3.071,0.343 -4.035,1.025c-0.965,0.671 -1.741,1.859 -2.343,3.564Zm12.953,7.858c-1.234,0.411 -3.2,0.907 -5.894,1.483c-2.682,0.577 -4.436,1.14 -5.27,1.682c-1.257,0.905 -1.894,2.035 -1.894,3.411c0,1.365 0.507,2.53 1.519,3.517c1.012,0.989 2.292,1.483 3.857,1.483c1.753,-0 3.411,-0.576 5,-1.719c1.177,-0.869 1.941,-1.941 2.304,-3.211c0.26,-0.822 0.378,-2.4 0.378,-4.717l0,-1.929Zm19.346,17.575l0,-50.525l9.682,0l0,50.525l-9.682,-0Zm73.062,-0l-8.988,-0l0,-5.376c-1.492,2.094 -3.257,3.648 -5.293,4.67c-2.034,1.024 -4.083,1.53 -6.152,1.53c-4.211,0 -7.811,-1.696 -10.811,-5.082c-2.989,-3.389 -4.494,-8.117 -4.494,-14.176c-0,-6.209 1.46,-10.929 4.376,-14.151c2.918,-3.223 6.611,-4.847 11.069,-4.847c4.084,0 7.623,1.706 10.611,5.106l0,-18.199l9.682,0l0,50.525Zm-25.843,-19.092c-0,3.904 0.541,6.728 1.623,8.481c1.553,2.518 3.74,3.787 6.54,3.787c2.235,0 4.128,-0.952 5.694,-2.845c1.553,-1.894 2.339,-4.73 2.339,-8.494c0,-4.199 -0.764,-7.234 -2.269,-9.081c-1.518,-1.849 -3.46,-2.778 -5.834,-2.778c-2.295,0 -4.213,0.919 -5.764,2.744c-1.553,1.82 -2.329,4.551 -2.329,8.186Zm56.859,7.446l9.656,1.611c-1.244,3.542 -3.198,6.235 -5.881,8.082c-2.67,1.858 -6.022,2.777 -10.045,2.777c-6.365,0 -11.069,-2.072 -14.128,-6.235c-2.412,-3.329 -3.624,-7.54 -3.624,-12.612c-0,-6.069 1.587,-10.821 4.764,-14.256c3.164,-3.437 7.177,-5.153 12.024,-5.153c5.445,0 9.739,1.799 12.893,5.399c3.141,3.599 4.646,9.106 4.516,16.527l-24.268,0c0.071,2.871 0.847,5.108 2.34,6.696c1.495,1.599 3.364,2.4 5.588,2.4c1.518,-0 2.788,-0.414 3.823,-1.237c1.037,-0.835 1.824,-2.165 2.342,-3.999Zm0.554,-9.787c-0.073,-2.813 -0.789,-4.942 -2.167,-6.399c-1.375,-1.458 -3.058,-2.19 -5.032,-2.19c-2.119,0 -3.86,0.777 -5.236,2.32c-1.378,1.528 -2.059,3.621 -2.037,6.269l14.472,0Zm-337.759,48.958l10.2,-0l0,27.361c0,4.341 0.128,7.164 0.376,8.446c0.436,2.072 1.483,3.73 3.116,4.977c1.648,1.258 3.895,1.882 6.741,1.882c2.896,0 5.082,-0.589 6.553,-1.776c1.47,-1.178 2.352,-2.635 2.648,-4.353c0.305,-1.729 0.445,-4.587 0.445,-8.588l0,-27.949l10.2,-0l0,26.539c0,6.07 -0.271,10.351 -0.824,12.855c-0.554,2.508 -1.566,4.612 -3.046,6.343c-1.483,1.716 -3.472,3.093 -5.941,4.115c-2.483,1.025 -5.729,1.531 -9.729,1.531c-4.823,0 -8.482,-0.553 -10.974,-1.671c-2.495,-1.116 -4.46,-2.565 -5.907,-4.34c-1.445,-1.777 -2.4,-3.648 -2.859,-5.599c-0.669,-2.896 -0.999,-7.164 -0.999,-12.823l0,-26.95Zm50.838,50.524l0,-50.524l9.681,-0l0,18.198c2.986,-3.4 6.516,-5.105 10.611,-5.105c4.456,-0 8.139,1.623 11.07,4.847c2.915,3.221 4.376,7.857 4.376,13.902c-0,6.247 -1.495,11.072 -4.471,14.446c-2.977,3.377 -6.588,5.06 -10.835,5.06c-2.094,0 -4.153,-0.518 -6.187,-1.565c-2.036,-1.047 -3.788,-2.588 -5.258,-4.635l0,5.376l-8.987,-0Zm9.609,-19.092c-0,3.787 0.601,6.588 1.788,8.411c1.684,2.575 3.906,3.857 6.694,3.857c2.128,0 3.953,-0.916 5.458,-2.74c1.508,-1.824 2.259,-4.705 2.259,-8.634c0,-4.176 -0.764,-7.199 -2.282,-9.046c-1.506,-1.848 -3.447,-2.778 -5.824,-2.778c-2.317,0 -4.246,0.907 -5.786,2.708c-1.541,1.811 -2.307,4.539 -2.307,8.222Zm55.379,7.446l9.657,1.611c-1.246,3.542 -3.199,6.235 -5.882,8.081c-2.67,1.858 -6.022,2.778 -10.045,2.778c-6.365,0 -11.069,-2.072 -14.128,-6.235c-2.412,-3.329 -3.625,-7.54 -3.625,-12.612c0,-6.069 1.588,-10.822 4.765,-14.255c3.164,-3.437 7.177,-5.153 12.024,-5.153c5.446,-0 9.739,1.798 12.892,5.398c3.142,3.599 4.647,9.106 4.517,16.527l-24.268,0c0.071,2.871 0.847,5.108 2.34,6.696c1.495,1.598 3.364,2.4 5.588,2.4c1.518,-0 2.788,-0.414 3.823,-1.238c1.037,-0.834 1.823,-2.164 2.342,-3.998Zm0.554,-9.786c-0.074,-2.813 -0.79,-4.943 -2.167,-6.401c-1.375,-1.457 -3.059,-2.189 -5.032,-2.189c-2.12,0 -3.861,0.777 -5.236,2.32c-1.378,1.527 -2.059,3.622 -2.036,6.27l14.471,-0Zm27.063,21.432l-9.682,-0l-0,-36.597l8.988,-0l-0,5.2c1.541,-2.46 2.928,-4.083 4.151,-4.86c1.235,-0.776 2.625,-1.174 4.188,-1.174c2.212,-0 4.329,0.611 6.375,1.833l-2.998,8.437c-1.623,-1.048 -3.141,-1.578 -4.542,-1.578c-1.365,-0 -2.505,0.365 -3.446,1.117c-0.953,0.742 -1.681,2.094 -2.223,4.048c-0.54,1.952 -0.811,6.047 -0.811,12.269l-0,11.305Zm18.476,-0l0,-50.524l9.682,-0l0,50.524l-9.682,-0Zm27.124,-25.432l-8.787,-1.589c0.989,-3.542 2.682,-6.152 5.094,-7.858c2.423,-1.694 6,-2.552 10.752,-2.552c4.328,-0 7.539,0.515 9.657,1.54c2.106,1.025 3.599,2.317 4.458,3.893c0.859,1.578 1.295,4.458 1.295,8.672l-0.105,11.305c0,3.211 0.153,5.586 0.468,7.116c0.308,1.518 0.894,3.164 1.741,4.905l-9.586,-0c-0.248,-0.647 -0.563,-1.601 -0.93,-2.858c-0.152,-0.577 -0.27,-0.955 -0.34,-1.142c-1.658,1.612 -3.424,2.812 -5.305,3.624c-1.882,0.8 -3.893,1.2 -6.035,1.2c-3.765,0 -6.741,-1.025 -8.905,-3.058c-2.177,-2.047 -3.259,-4.637 -3.259,-7.766c-0,-2.059 0.494,-3.905 1.483,-5.528c0.987,-1.623 2.375,-2.859 4.151,-3.717c1.778,-0.86 4.353,-1.612 7.705,-2.26c4.519,-0.846 7.66,-1.646 9.401,-2.375l-0,-0.964c-0,-1.871 -0.458,-3.189 -1.377,-3.988c-0.918,-0.789 -2.646,-1.19 -5.198,-1.19c-1.732,0 -3.072,0.343 -4.036,1.025c-0.964,0.671 -1.741,1.859 -2.342,3.565Zm12.953,7.857c-1.235,0.411 -3.202,0.907 -5.894,1.483c-2.684,0.576 -4.436,1.14 -5.27,1.681c-1.258,0.907 -1.894,2.036 -1.894,3.412c-0,1.365 0.505,2.53 1.517,3.517c1.013,0.989 2.293,1.483 3.858,1.483c1.753,-0 3.412,-0.576 5.001,-1.719c1.176,-0.869 1.941,-1.941 2.303,-3.212c0.261,-0.82 0.379,-2.399 0.379,-4.716l-0,-1.929Zm-17.224,-23.644l7.237,-10.165l8.962,-0l7.129,10.165l-7.788,-0l-4,-5.13l-3.717,5.13l-7.823,-0Zm69.86,41.219l-9.681,-0l-0,-18.682c-0,-3.951 -0.211,-6.503 -0.624,-7.668c-0.411,-1.154 -1.092,-2.059 -2.022,-2.707c-0.929,-0.634 -2.048,-0.965 -3.353,-0.965c-1.681,0 -3.187,0.461 -4.517,1.378c-1.33,0.929 -2.247,2.142 -2.74,3.657c-0.496,1.518 -0.742,4.319 -0.742,8.412l-0,16.575l-9.682,-0l-0,-36.597l8.988,-0l-0,5.375c3.199,-4.14 7.222,-6.209 12.069,-6.209c2.129,-0 4.093,0.388 5.859,1.152c1.763,0.777 3.104,1.753 4.011,2.954c0.906,1.199 1.54,2.552 1.893,4.069c0.366,1.516 0.541,3.683 0.541,6.506l0,22.75Zm43.662,-0l-8.989,-0l0,-5.376c-1.493,2.094 -3.256,3.648 -5.292,4.669c-2.035,1.025 -4.083,1.531 -6.153,1.531c-4.21,0 -7.81,-1.696 -10.811,-5.082c-2.988,-3.39 -4.494,-8.117 -4.494,-14.176c0,-6.209 1.461,-10.929 4.376,-14.15c2.919,-3.224 6.611,-4.847 11.07,-4.847c4.083,-0 7.623,1.705 10.611,5.105l-0,-18.198l9.682,-0l-0,50.524Zm-25.844,-19.092c-0,3.904 0.541,6.728 1.623,8.481c1.553,2.517 3.74,3.787 6.54,3.787c2.235,0 4.128,-0.951 5.694,-2.845c1.553,-1.894 2.34,-4.729 2.34,-8.494c-0,-4.199 -0.764,-7.234 -2.269,-9.081c-1.519,-1.848 -3.46,-2.778 -5.834,-2.778c-2.295,0 -4.214,0.919 -5.765,2.743c-1.552,1.821 -2.329,4.552 -2.329,8.187Zm35.673,-22.47l-0,-8.962l9.681,-0l0,8.962l-9.681,-0Zm-0,41.562l-0,-36.597l9.681,-0l0,36.597l-9.681,-0Zm27.123,-25.432l-8.787,-1.589c0.99,-3.542 2.682,-6.152 5.094,-7.858c2.423,-1.694 6,-2.552 10.752,-2.552c4.328,-0 7.54,0.515 9.657,1.54c2.106,1.025 3.599,2.317 4.458,3.893c0.86,1.578 1.296,4.458 1.296,8.672l-0.106,11.305c0,3.211 0.153,5.586 0.469,7.116c0.308,1.518 0.894,3.164 1.741,4.905l-9.587,-0c-0.248,-0.647 -0.563,-1.601 -0.929,-2.858c-0.152,-0.577 -0.27,-0.955 -0.341,-1.142c-1.658,1.612 -3.424,2.812 -5.305,3.624c-1.882,0.8 -3.893,1.2 -6.035,1.2c-3.765,0 -6.74,-1.025 -8.905,-3.058c-2.177,-2.047 -3.259,-4.637 -3.259,-7.766c0,-2.059 0.494,-3.905 1.483,-5.528c0.987,-1.623 2.375,-2.859 4.151,-3.717c1.778,-0.86 4.353,-1.612 7.705,-2.26c4.519,-0.846 7.66,-1.646 9.401,-2.375l0,-0.964c0,-1.871 -0.458,-3.189 -1.377,-3.988c-0.918,-0.789 -2.645,-1.19 -5.198,-1.19c-1.731,0 -3.072,0.343 -4.035,1.025c-0.965,0.671 -1.741,1.859 -2.343,3.565Zm12.953,7.857c-1.235,0.411 -3.201,0.907 -5.894,1.483c-2.682,0.576 -4.436,1.14 -5.27,1.681c-1.258,0.907 -1.894,2.036 -1.894,3.412c-0,1.365 0.506,2.53 1.518,3.517c1.012,0.989 2.292,1.483 3.858,1.483c1.753,-0 3.411,-0.576 5,-1.719c1.177,-0.869 1.941,-1.941 2.304,-3.212c0.26,-0.82 0.378,-2.399 0.378,-4.716l0,-1.929Z" style="fill:#fff;fill-rule:nonzero;"/><path d="M99.254,206.438l45.817,-0l60.208,-60.249l-0,-76.218l-46.564,-0l-1.613,1.618l0,76.961l-57.848,57.888Zm-39.068,-205.535l0,136.118l9.241,9.238l50.655,0l9.322,-9.321l-0,-77.756l15.794,-15.805l42.741,-0l-42.663,-42.461l-85.09,-0.013Zm-22.039,22.005l-38.147,38.192l-0,85.253l60.041,60.085l26.604,-0l61.542,-61.584l0,-77.824l5.977,-5.983l51.372,0.016l-8.929,-8.757l-46.844,-0.003l-10.947,10.971l-0,76.857l-28.222,28.238l-50.444,-0l-22.003,-22.016l0,-123.445Z" style="fill:#fff;"/></g></g></svg>