<?xml version="1.0" encoding="UTF-8" standalone="no"?>
<!DOCTYPE svg PUBLIC "-//W3C//DTD SVG 1.1//EN" "http://www.w3.org/Graphics/SVG/1.1/DTD/svg11.dtd">
<svg width="100%" height="100%" viewBox="0 0 512 512" version="1.1" xmlns="http://www.w3.org/2000/svg" xmlns:xlink="http://www.w3.org/1999/xlink" xml:space="preserve" xmlns:serif="http://www.serif.com/" style="fill-rule:evenodd;clip-rule:evenodd;stroke-linejoin:round;stroke-miterlimit:2;">
    <g transform="matrix(0.5,0,0,0.5,274,128)">
        <path d="M12.82,352L275.18,352C282.213,352 288,346.213 288,339.18L288,300.82C288,293.787 282.213,288 275.18,288L12.82,288C5.787,288 -0,293.787 -0,300.82L-0,339.18C-0,346.213 5.787,352 12.82,352ZM12.82,96L275.18,96C282.213,96 288,90.213 288,83.18L288,44.82C288,37.787 282.213,32 275.18,32L12.82,32C5.787,32 -0,37.787 -0,44.82L-0,83.18C-0,90.213 5.787,96 12.82,96ZM432,160L16,160C7.223,160 -0,167.223 0,176L0,208C0,216.777 7.223,224 16,224L432,224C440.777,224 448,216.777 448,208L448,176C448,167.223 440.777,160 432,160ZM432,416L16,416C7.223,416 -0,423.223 0,432L0,464C0,472.777 7.223,480 16,480L432,480C440.777,480 448,472.777 448,464L448,432C448,423.223 440.777,416 432,416Z" style="fill-rule:nonzero;"/>
    </g>
    <g transform="matrix(0.4375,0,0,0.4375,14,144)">
        <path d="M224,256C294.7,256 352,198.7 352,128C352,57.3 294.7,0 224,0C153.3,0 96,57.3 96,128C96,198.7 153.3,256 224,256ZM313.6,288L296.9,288C274.7,298.2 250,304 224,304C198,304 173.4,298.2 151.1,288L134.4,288C60.2,288 0,348.2 0,422.4L0,464C0,490.5 21.5,512 48,512L400,512C426.5,512 448,490.5 448,464L448,422.4C448,348.2 387.8,288 313.6,288Z" style="fill-rule:nonzero;"/>
    </g>
</svg>
