<?xml version="1.0" encoding="UTF-8" standalone="no"?>
<!DOCTYPE svg PUBLIC "-//W3C//DTD SVG 1.1//EN" "http://www.w3.org/Graphics/SVG/1.1/DTD/svg11.dtd">
<svg width="100%" height="100%" viewBox="0 0 512 512" version="1.1" xmlns="http://www.w3.org/2000/svg" xmlns:xlink="http://www.w3.org/1999/xlink" xml:space="preserve" xmlns:serif="http://www.serif.com/" style="fill-rule:evenodd;clip-rule:evenodd;stroke-linejoin:round;stroke-miterlimit:2;">
    <g transform="matrix(0.5,0,0,0.5,1.9516e-06,128)">
        <path d="M12.83,352L275.17,352C275.173,352 275.177,352 275.18,352C282.213,352 288,346.213 288,339.18C288,339.177 288,339.173 288,339.17L288,300.83C288,300.827 288,300.823 288,300.82C288,293.787 282.213,288 275.18,288C275.177,288 275.173,288 275.17,288L12.83,288C12.827,288 12.823,288 12.82,288C5.787,288 -0,293.787 -0,300.82C-0,300.823 -0,300.827 0,300.83L0,339.17C-0,339.173 -0,339.177 -0,339.18C-0,346.213 5.787,352 12.82,352C12.823,352 12.827,352 12.83,352ZM12.83,96L275.17,96C275.173,96 275.177,96 275.18,96C282.213,96 288,90.213 288,83.18C288,83.177 288,83.173 288,83.17L288,44.83C288,44.827 288,44.823 288,44.82C288,37.787 282.213,32 275.18,32C275.177,32 275.173,32 275.17,32L12.83,32C12.827,32 12.823,32 12.82,32C5.787,32 -0,37.787 -0,44.82C-0,44.823 -0,44.827 0,44.83L0,83.17C-0,83.173 -0,83.177 -0,83.18C-0,90.213 5.787,96 12.82,96C12.823,96 12.827,96 12.83,96ZM432,160L16,160C7.223,160 -0,167.223 0,176L0,208C0,216.777 7.223,224 16,224L432,224C440.777,224 448,216.777 448,208L448,176C448,167.223 440.777,160 432,160ZM432,416L16,416C7.223,416 -0,423.223 0,432L0,464C0,472.777 7.223,480 16,480L432,480C440.777,480 448,472.777 448,464L448,432C448,423.223 440.777,416 432,416Z" style="fill-rule:nonzero;"/>
    </g>
    <g transform="matrix(0.5,0,0,0.5,288,128)">
        <path d="M12.83,352L275.17,352C275.173,352 275.177,352 275.18,352C282.213,352 288,346.213 288,339.18C288,339.177 288,339.173 288,339.17L288,300.83C288,300.827 288,300.823 288,300.82C288,293.787 282.213,288 275.18,288C275.177,288 275.173,288 275.17,288L12.83,288C12.827,288 12.823,288 12.82,288C5.787,288 -0,293.787 -0,300.82C-0,300.823 -0,300.827 0,300.83L0,339.17C-0,339.173 -0,339.177 -0,339.18C-0,346.213 5.787,352 12.82,352C12.823,352 12.827,352 12.83,352ZM12.83,96L275.17,96C275.173,96 275.177,96 275.18,96C282.213,96 288,90.213 288,83.18C288,83.177 288,83.173 288,83.17L288,44.83C288,44.827 288,44.823 288,44.82C288,37.787 282.213,32 275.18,32C275.177,32 275.173,32 275.17,32L12.83,32C12.827,32 12.823,32 12.82,32C5.787,32 -0,37.787 -0,44.82C-0,44.823 -0,44.827 0,44.83L0,83.17C-0,83.173 -0,83.177 -0,83.18C-0,90.213 5.787,96 12.82,96C12.823,96 12.827,96 12.83,96ZM432,160L16,160C7.223,160 -0,167.223 0,176L0,208C0,216.777 7.223,224 16,224L432,224C440.777,224 448,216.777 448,208L448,176C448,167.223 440.777,160 432,160ZM432,416L16,416C7.223,416 -0,423.223 0,432L0,464C0,472.777 7.223,480 16,480L432,480C440.777,480 448,472.777 448,464L448,432C448,423.223 440.777,416 432,416Z" style="fill-rule:nonzero;"/>
    </g>
</svg>
